<mxfile host="app.diagrams.net" modified="2024-03-31T15:33:03.506Z" agent="Mozilla/5.0 (X11; Linux x86_64; rv:124.0) Gecko/20100101 Firefox/124.0" etag="nNCYZpaVxRPfSoAlLcyO" version="24.2.1" type="device">
  <diagram name="Page-1" id="kLbU6HqEVQ4GJ34NbLrl">
    <mxGraphModel dx="1434" dy="759" grid="1" gridSize="10" guides="1" tooltips="1" connect="1" arrows="1" fold="1" page="1" pageScale="1" pageWidth="850" pageHeight="1100" math="0" shadow="0">
      <root>
        <mxCell id="0" />
        <mxCell id="1" parent="0" />
        <mxCell id="ioGyp-gqQDISdZr-QKNe-1" value="" style="ellipse;whiteSpace=wrap;html=1;" vertex="1" parent="1">
          <mxGeometry x="110" y="80" width="120" height="120" as="geometry" />
        </mxCell>
        <mxCell id="ioGyp-gqQDISdZr-QKNe-2" value="&lt;font style=&quot;font-size: 16px;&quot;&gt;&lt;b&gt;IDLE/000&lt;/b&gt;&lt;/font&gt;" style="text;html=1;align=center;verticalAlign=middle;whiteSpace=wrap;rounded=0;" vertex="1" parent="1">
          <mxGeometry x="130" y="125" width="80" height="30" as="geometry" />
        </mxCell>
        <mxCell id="ioGyp-gqQDISdZr-QKNe-3" value="" style="endArrow=classic;html=1;rounded=0;entryX=0.5;entryY=0;entryDx=0;entryDy=0;" edge="1" parent="1" target="ioGyp-gqQDISdZr-QKNe-1">
          <mxGeometry width="50" height="50" relative="1" as="geometry">
            <mxPoint x="170" y="20" as="sourcePoint" />
            <mxPoint x="450" y="370" as="targetPoint" />
          </mxGeometry>
        </mxCell>
        <mxCell id="ioGyp-gqQDISdZr-QKNe-4" value="" style="curved=1;endArrow=classic;html=1;rounded=0;exitX=0;exitY=1;exitDx=0;exitDy=0;entryX=0;entryY=0;entryDx=0;entryDy=0;" edge="1" parent="1" source="ioGyp-gqQDISdZr-QKNe-1" target="ioGyp-gqQDISdZr-QKNe-1">
          <mxGeometry width="50" height="50" relative="1" as="geometry">
            <mxPoint x="400" y="420" as="sourcePoint" />
            <mxPoint x="450" y="370" as="targetPoint" />
            <Array as="points">
              <mxPoint x="40" y="200" />
              <mxPoint x="40" y="80" />
            </Array>
          </mxGeometry>
        </mxCell>
        <mxCell id="ioGyp-gqQDISdZr-QKNe-5" value="" style="endArrow=classic;html=1;rounded=0;exitX=1;exitY=0.5;exitDx=0;exitDy=0;" edge="1" parent="1" source="ioGyp-gqQDISdZr-QKNe-1">
          <mxGeometry width="50" height="50" relative="1" as="geometry">
            <mxPoint x="400" y="420" as="sourcePoint" />
            <mxPoint x="440" y="140" as="targetPoint" />
          </mxGeometry>
        </mxCell>
        <mxCell id="ioGyp-gqQDISdZr-QKNe-6" value="&lt;font style=&quot;font-size: 16px;&quot;&gt;DIN = &#39;0&#39;&lt;br&gt;&lt;/font&gt;" style="text;html=1;align=center;verticalAlign=middle;whiteSpace=wrap;rounded=0;" vertex="1" parent="1">
          <mxGeometry x="290" y="110" width="80" height="30" as="geometry" />
        </mxCell>
        <mxCell id="ioGyp-gqQDISdZr-QKNe-7" value="" style="ellipse;whiteSpace=wrap;html=1;" vertex="1" parent="1">
          <mxGeometry x="440" y="80" width="120" height="120" as="geometry" />
        </mxCell>
        <mxCell id="ioGyp-gqQDISdZr-QKNe-8" value="&lt;div&gt;&lt;font style=&quot;font-size: 16px;&quot;&gt;&lt;b&gt;WAIT_FIRST&lt;/b&gt;&lt;/font&gt;&lt;/div&gt;&lt;div&gt;&lt;font style=&quot;font-size: 16px;&quot;&gt;&lt;b&gt;/010&lt;/b&gt;&lt;/font&gt;&lt;/div&gt;" style="text;html=1;align=center;verticalAlign=middle;whiteSpace=wrap;rounded=0;" vertex="1" parent="1">
          <mxGeometry x="445" y="117.5" width="110" height="45" as="geometry" />
        </mxCell>
        <mxCell id="ioGyp-gqQDISdZr-QKNe-9" value="&lt;font style=&quot;font-size: 16px;&quot;&gt;else&lt;/font&gt;" style="text;html=1;align=center;verticalAlign=middle;whiteSpace=wrap;rounded=0;" vertex="1" parent="1">
          <mxGeometry x="40" y="125" width="60" height="30" as="geometry" />
        </mxCell>
        <mxCell id="ioGyp-gqQDISdZr-QKNe-10" value="" style="curved=1;endArrow=classic;html=1;rounded=0;exitX=1;exitY=1;exitDx=0;exitDy=0;entryX=1;entryY=0;entryDx=0;entryDy=0;" edge="1" parent="1" source="ioGyp-gqQDISdZr-QKNe-7" target="ioGyp-gqQDISdZr-QKNe-7">
          <mxGeometry width="50" height="50" relative="1" as="geometry">
            <mxPoint x="138" y="192" as="sourcePoint" />
            <mxPoint x="138" y="108" as="targetPoint" />
            <Array as="points">
              <mxPoint x="640" y="200" />
              <mxPoint x="640" y="80" />
            </Array>
          </mxGeometry>
        </mxCell>
        <mxCell id="ioGyp-gqQDISdZr-QKNe-11" value="&lt;font style=&quot;font-size: 16px;&quot;&gt;else&lt;/font&gt;" style="text;html=1;align=center;verticalAlign=middle;whiteSpace=wrap;rounded=0;" vertex="1" parent="1">
          <mxGeometry x="580" y="125" width="60" height="30" as="geometry" />
        </mxCell>
        <mxCell id="ioGyp-gqQDISdZr-QKNe-12" value="" style="ellipse;whiteSpace=wrap;html=1;" vertex="1" parent="1">
          <mxGeometry x="440" y="400" width="120" height="120" as="geometry" />
        </mxCell>
        <mxCell id="ioGyp-gqQDISdZr-QKNe-13" value="" style="endArrow=classic;html=1;rounded=0;exitX=0.5;exitY=1;exitDx=0;exitDy=0;entryX=0.5;entryY=0;entryDx=0;entryDy=0;" edge="1" parent="1" source="ioGyp-gqQDISdZr-QKNe-7" target="ioGyp-gqQDISdZr-QKNe-12">
          <mxGeometry width="50" height="50" relative="1" as="geometry">
            <mxPoint x="410" y="300" as="sourcePoint" />
            <mxPoint x="620" y="300" as="targetPoint" />
          </mxGeometry>
        </mxCell>
        <mxCell id="ioGyp-gqQDISdZr-QKNe-16" value="" style="curved=1;endArrow=classic;html=1;rounded=0;exitX=1;exitY=1;exitDx=0;exitDy=0;entryX=1;entryY=0;entryDx=0;entryDy=0;" edge="1" parent="1">
          <mxGeometry width="50" height="50" relative="1" as="geometry">
            <mxPoint x="542" y="502" as="sourcePoint" />
            <mxPoint x="542" y="418" as="targetPoint" />
            <Array as="points">
              <mxPoint x="640" y="520" />
              <mxPoint x="640" y="400" />
            </Array>
          </mxGeometry>
        </mxCell>
        <mxCell id="ioGyp-gqQDISdZr-QKNe-17" value="&lt;font style=&quot;font-size: 16px;&quot;&gt;else&lt;/font&gt;" style="text;html=1;align=center;verticalAlign=middle;whiteSpace=wrap;rounded=0;" vertex="1" parent="1">
          <mxGeometry x="580" y="445" width="60" height="30" as="geometry" />
        </mxCell>
        <mxCell id="ioGyp-gqQDISdZr-QKNe-18" value="&lt;font style=&quot;font-size: 16px;&quot;&gt;CNT_CYCLE [4:0] = 8&lt;br&gt;&lt;/font&gt;" style="text;html=1;align=center;verticalAlign=middle;whiteSpace=wrap;rounded=0;" vertex="1" parent="1">
          <mxGeometry x="510" y="290" width="160" height="30" as="geometry" />
        </mxCell>
        <mxCell id="ioGyp-gqQDISdZr-QKNe-19" value="&lt;div style=&quot;font-size: 16px;&quot;&gt;&lt;font style=&quot;font-size: 16px;&quot;&gt;&lt;b&gt;READ_DATA&lt;/b&gt;&lt;/font&gt;&lt;/div&gt;&lt;div style=&quot;font-size: 16px;&quot;&gt;&lt;font style=&quot;font-size: 16px;&quot;&gt;&lt;b&gt;&lt;font style=&quot;font-size: 16px;&quot;&gt;/011&lt;/font&gt;&lt;br&gt;&lt;/b&gt;&lt;/font&gt;&lt;/div&gt;" style="text;html=1;align=center;verticalAlign=middle;whiteSpace=wrap;rounded=0;" vertex="1" parent="1">
          <mxGeometry x="445" y="437.5" width="110" height="45" as="geometry" />
        </mxCell>
        <mxCell id="ioGyp-gqQDISdZr-QKNe-20" value="" style="endArrow=classic;html=1;rounded=0;entryX=1;entryY=0.5;entryDx=0;entryDy=0;exitX=0;exitY=0.5;exitDx=0;exitDy=0;" edge="1" parent="1" source="ioGyp-gqQDISdZr-QKNe-12" target="ioGyp-gqQDISdZr-QKNe-21">
          <mxGeometry width="50" height="50" relative="1" as="geometry">
            <mxPoint x="400" y="540" as="sourcePoint" />
            <mxPoint x="440" y="459.5" as="targetPoint" />
          </mxGeometry>
        </mxCell>
        <mxCell id="ioGyp-gqQDISdZr-QKNe-21" value="" style="ellipse;whiteSpace=wrap;html=1;" vertex="1" parent="1">
          <mxGeometry x="110" y="400" width="120" height="120" as="geometry" />
        </mxCell>
        <mxCell id="ioGyp-gqQDISdZr-QKNe-22" value="" style="endArrow=classic;html=1;rounded=0;exitX=0.5;exitY=0;exitDx=0;exitDy=0;entryX=0.5;entryY=1;entryDx=0;entryDy=0;" edge="1" parent="1" source="ioGyp-gqQDISdZr-QKNe-21" target="ioGyp-gqQDISdZr-QKNe-1">
          <mxGeometry width="50" height="50" relative="1" as="geometry">
            <mxPoint x="510" y="210" as="sourcePoint" />
            <mxPoint x="510" y="410" as="targetPoint" />
          </mxGeometry>
        </mxCell>
        <mxCell id="ioGyp-gqQDISdZr-QKNe-23" value="&lt;font style=&quot;font-size: 16px;&quot;&gt;CNT_CYCLE [4:0] = 16&lt;br&gt;CNT_BIT [3:0] = 8&lt;br&gt;&lt;/font&gt;" style="text;html=1;align=center;verticalAlign=middle;whiteSpace=wrap;rounded=0;" vertex="1" parent="1">
          <mxGeometry x="250" y="470" width="170" height="30" as="geometry" />
        </mxCell>
        <mxCell id="ioGyp-gqQDISdZr-QKNe-24" value="&lt;div&gt;&lt;b&gt;&lt;font style=&quot;font-size: 16px;&quot;&gt;STOP_READ&lt;/font&gt;&lt;/b&gt;&lt;/div&gt;&lt;div&gt;&lt;b&gt;&lt;font style=&quot;font-size: 16px;&quot;&gt;/100&lt;/font&gt;&lt;/b&gt;&lt;/div&gt;" style="text;html=1;align=center;verticalAlign=middle;whiteSpace=wrap;rounded=0;" vertex="1" parent="1">
          <mxGeometry x="115" y="437.5" width="110" height="45" as="geometry" />
        </mxCell>
        <mxCell id="ioGyp-gqQDISdZr-QKNe-25" value="" style="curved=1;endArrow=classic;html=1;rounded=0;exitX=0;exitY=1;exitDx=0;exitDy=0;entryX=0;entryY=0;entryDx=0;entryDy=0;" edge="1" parent="1">
          <mxGeometry width="50" height="50" relative="1" as="geometry">
            <mxPoint x="128" y="502" as="sourcePoint" />
            <mxPoint x="128" y="418" as="targetPoint" />
            <Array as="points">
              <mxPoint x="40" y="520" />
              <mxPoint x="40" y="400" />
            </Array>
          </mxGeometry>
        </mxCell>
        <mxCell id="ioGyp-gqQDISdZr-QKNe-26" value="&lt;font style=&quot;font-size: 16px;&quot;&gt;else&lt;/font&gt;" style="text;html=1;align=center;verticalAlign=middle;whiteSpace=wrap;rounded=0;" vertex="1" parent="1">
          <mxGeometry x="40" y="445" width="60" height="30" as="geometry" />
        </mxCell>
        <mxCell id="ioGyp-gqQDISdZr-QKNe-27" value="&lt;font style=&quot;font-size: 16px;&quot;&gt;DIN = &#39;1&#39;&lt;br&gt;&lt;/font&gt;" style="text;html=1;align=center;verticalAlign=middle;whiteSpace=wrap;rounded=0;" vertex="1" parent="1">
          <mxGeometry x="80" y="290" width="80" height="30" as="geometry" />
        </mxCell>
      </root>
    </mxGraphModel>
  </diagram>
</mxfile>
